# xmcd
#
# Track frame offsets:
#	150
#	12264
#	25928
#	38842
#	51350
#	66524
#	80231
#	92868
#	108543
#	121531
#
# Disc length: 1771 seconds
#
# Revision: 1
# Processed by: cddbd v1.5.2PL0 Copyright (c) Steve Scherf et al.
# Submitted via: audiograbber 1.83.01
#
DISCID=8406e90a
DTITLE=Chico Che - El Polvorete
DYEAR=2001
DGENRE=Tropical
TTITLE0=El Polvorete
TTITLE1=La Botellita
TTITLE2=Corazón mío
TTITLE3=Porron pon pin
TTITLE4=En eso llegó Fidel
TTITLE5=Yo no bailo con Juana
TTITLE6=La mesera de aquella fonda
TTITLE7=Abre la puerta
TTITLE8=Hace frío
TTITLE9=El carretón de la basura
EXTD=
EXTT0=
EXTT1=
EXTT2=
EXTT3=
EXTT4=
EXTT5=
EXTT6=
EXTT7=
EXTT8=
EXTT9=
PLAYORDER=
